<svg width="16" height="16" fill="none" xmlns="http://www.w3.org/2000/svg"><path fill-rule="evenodd" clip-rule="evenodd" d="M8 0C3.58172 0 0 3.58172 0 8c0 4.4183 3.58172 8 8 8 4.4183 0 8-3.5817 8-8 0-4.41828-3.5817-8-8-8Zm0 13.8667c-3.24007 0-5.86667-2.6266-5.86667-5.8667 0-3.24007 2.6266-5.86667 5.86667-5.86667 3.2401 0 5.8667 2.6266 5.8667 5.86667 0 1.55594-.6181 3.0481-1.7183 4.1484C11.0481 13.2486 9.55594 13.8667 8 13.8667ZM8 3.2C5.34903 3.2 3.2 5.34903 3.2 8c0 2.651 2.14903 4.8 4.8 4.8 2.651 0 4.8-2.149 4.8-4.8 0-2.65097-2.149-4.8-4.8-4.8Zm2.6667 5.86667H7.46667c-.29456 0-.53334-.23878-.53334-.53334V6.4c0-.29455.23878-.53333.53334-.53333C7.76122 5.86667 8 6.10545 8 6.4V8h2.6667c.2945 0 .5333.23878.5333.53333 0 .29456-.2388.53334-.5333.53334Z" fill="#8E4CB6"/></svg>