<svg width="13" height="17" fill="none" xmlns="http://www.w3.org/2000/svg"><path fill-rule="evenodd" clip-rule="evenodd" d="M.407715 10.9164c0 1.657 2.686995 3 5.999995 3s5.99999-1.343 5.99999-3c0-.612-.371-1.18-1-1.654v-1.346c0-2.065-1.254-3.837-3.04099-4.6.11984-.5883-.03086-1.19932-.41051-1.66443-.37964-.46511-.9481-.735143-1.54849-.735565-.60038.000422-1.16884.270455-1.54848.735565-.37965.46511-.53035 1.07613-.41052 1.66443-1.788.763-3.041 2.535-3.041 4.6v1.346c-.628995.474-.999995 1.042-.999995 1.654Zm7.984005 3.84c-.63201.094-1.29.16-1.98401.16-.694 0-1.35099-.066-1.984-.16-.0016.0217-.00449.0429-.00738.064-.00431.0316-.00862.0631-.00862.096 0 1.104.896 2 2 2s2-.896 2-2c0-.0329-.0043-.0644-.00861-.096-.00289-.0211-.00578-.0423-.00738-.064Z" fill="#EDD556"/></svg>