<svg width="114" height="20" fill="none" xmlns="http://www.w3.org/2000/svg"><path fill-rule="evenodd" clip-rule="evenodd" d="M25.1002 19.4495c-.6372.367-1.3748.5505-2.2128.5505-.9515 0-1.8419-.1791-2.6712-.5374-.8293-.3582-1.5603-.854-2.1932-1.4875-.6329-.6335-1.1282-1.3652-1.4861-2.1953-.3579-.83-.5369-1.7213-.5369-2.6736 0-.9524.179-1.8436.5369-2.6737.3579-.83005.8532-1.56181 1.4861-2.19528.6329-.63346 1.3639-1.12931 2.1932-1.48755.8293-.35823 1.7197-.53735 2.6712-.53735.838 0 1.5756.1813 2.2128.54391.6373.3626 1.1654.84097 1.5844 1.43512V0h3.1949v19.6592h-3.1949V18.021c-.419.5854-.9471 1.0616-1.5844 1.4285Zm-4.0001-3.0406c.5543.3408 1.1631.5112 1.8265.5112.6809 0 1.2832-.1704 1.807-.5112.5238-.3407.934-.8016 1.2308-1.3827.2968-.581.4452-1.221.4452-1.92 0-.7078-.1484-1.3522-.4452-1.9332-.2968-.581-.7092-1.0419-1.2373-1.3827-.5282-.34076-1.1283-.51114-1.8005-.51114-.6721 0-1.2831.17257-1.8331.51769-.5499.34515-.9908.80605-1.3225 1.38275-.3317.5766-.4975 1.2188-.4975 1.9266 0 .7077.1658 1.3499.4975 1.9266.3317.5766.7748 1.0354 1.3291 1.3761ZM39.2939 20c.7944 0 1.4862-.1813 2.0754-.5439.5892-.3626 1.0672-.8366 1.4338-1.422l.1309 1.6251h3.208V6.55308h-3.1949l.1441 1.67759c-.4801-.59415-1.0628-1.08344-1.7481-1.46789-.6852-.38445-1.4643-.57667-2.3372-.57667-.934 0-1.807.17475-2.6188.52424-.8118.3495-1.5276.83443-2.1474 1.45479-.6198.62036-1.0999 1.3412-1.4403 2.16256-.3404.8213-.5107 1.6994-.5107 2.6343 0 .9698.179 1.8785.5369 2.7261.3579.8475.8598 1.5946 1.5058 2.2411.6459.6466 1.3923 1.1534 2.239 1.5203.8468.367 1.7546.5505 2.7235.5505Zm-1.7218-3.578c.563.332 1.1675.4981 1.8135.4981.6983 0 1.305-.1792 1.82-.5374.5151-.3582.9057-.8366 1.1719-1.4351.2663-.5985.3732-1.2604.3208-1.9856-.0611-.6815-.2618-1.2997-.6023-1.8545-.3404-.5549-.7769-.9983-1.3094-1.3303-.5324-.33203-1.1304-.49804-1.7938-.49804-.6896 0-1.3072.17912-1.8528.53735-.5456.35819-.9668.83659-1.2635 1.43509-.2968.5986-.4147 1.2648-.3536 1.9987.0699.6728.2881 1.2866.6547 1.8414.3666.5549.8315.9983 1.3945 1.3303Zm16.1905 3.2372V9.75098h2.5402v-3.1979h-2.5402V2.43775h-3.1949v4.11533h-1.9378v3.1979h1.9378v9.90822h3.1949Zm13.3492-.2031c-.5892.3626-1.281.5439-2.0754.5439-.9689 0-1.8767-.1835-2.7235-.5505-.8467-.3669-1.5931-.8737-2.239-1.5203-.646-.6465-1.1479-1.3936-1.5058-2.2411-.3579-.8476-.5369-1.7563-.5369-2.7261 0-.9349.1703-1.813.5107-2.6343.3404-.82136.8205-1.5422 1.4403-2.16256.6198-.62036 1.3356-1.10529 2.1474-1.45479.8118-.34949 1.6847-.52424 2.6188-.52424.8729 0 1.652.19222 2.3372.57667.6853.38445 1.2679.87374 1.748 1.46789l-.144-1.67759h3.1949V19.6592h-3.208l-.1309-1.6251c-.3666.5854-.8446 1.0594-1.4338 1.422Zm-1.9837-2.536c-.646 0-1.2505-.1661-1.8135-.4981-.563-.332-1.0279-.7754-1.3945-1.3303-.3666-.5548-.5849-1.1686-.6547-1.8414-.0611-.7339.0567-1.4001.3535-1.9987.2968-.5985.718-1.0769 1.2636-1.43509.5456-.35823 1.1632-.53735 1.8528-.53735.6634 0 1.2614.16601 1.7938.49804.5325.332.969.7754 1.3094 1.3303.3405.5548.5412 1.173.6023 1.8545.0524.7252-.0545 1.3871-.3208 1.9856-.2662.5985-.6568 1.0769-1.1719 1.4351-.515.3582-1.1217.5374-1.82.5374Zm19.5556 2.5425c-.8336.3583-1.7305.5374-2.6907.5374-.8206 0-1.5473-.1857-2.1802-.557-.6328-.3714-1.1631-.8541-1.5909-1.4482v1.6644H75.027V0h3.1949v8.19135c.4278-.59415.9581-1.07689 1.5909-1.44823.6329-.37134 1.3596-.55701 2.1802-.55701 1.2744 0 2.4354.31018 3.4829.93053 1.0475.62036 1.8812 1.4526 2.5009 2.49673.6198 1.04413.9297 2.19963.9297 3.46653 0 .9524-.1789 1.848-.5368 2.6868-.3579.8388-.8533 1.5749-1.4862 2.2084-.6329.6335-1.3661 1.1293-2.1998 1.4875Zm-2.73-2.5557c-.6634 0-1.257-.1703-1.7808-.5111-.5237-.3408-.934-.8017-1.2308-1.3827-.2968-.581-.4452-1.2254-.4452-1.9332 0-.6902.1484-1.3259.4452-1.9069.2968-.581.7071-1.0441 1.2308-1.38925.5238-.34513 1.1174-.51769 1.7808-.51769.6721 0 1.2875.17037 1.8462.51113.5587.34081 1.0039.80171 1.3356 1.38271.3317.581.4975 1.2211.4975 1.92 0 .7078-.1658 1.35-.4975 1.9267-.3317.5766-.7747 1.0375-1.329 1.3827-.5543.3451-1.1719.5176-1.8528.5176ZM94.0458 4.13499c-.3186.31018-.7092.46527-1.1719.46527-.4626 0-.8554-.15509-1.1784-.46527-.323-.31018-.4845-.70118-.4845-1.173 0-.46308.1615-.8519.4845-1.16645.323-.31454.7158-.47182 1.1784-.47182.4627 0 .8533.15728 1.1719.47182.3187.31455.478.70337.478 1.16645 0 .47182-.1593.86282-.478 1.173Zm17.8282 5.46527c.463 0 .853-.15509 1.172-.46527.318-.31018.478-.70118.478-1.173 0-.46308-.16-.8519-.478-1.16645-.319-.31454-.709-.47182-1.172-.47182-.463 0-.856.15728-1.179.47182-.322.31455-.484.70337-.484 1.16645 0 .47182.162.86282.484 1.173.323.31018.716.46527 1.179.46527ZM11.6275 17.4777c-1.2641 1.2307-2.81398 1.846-4.64958 1.846-1.83561 0-3.39414-.6153-4.6756-1.846-1.28146-1.2306-1.922193-2.782-1.922193-4.654 0-1.8373.640733-3.37998 1.922193-4.62798 1.28146-1.248 2.83999-1.872 4.6756-1.872 1.8356 0 3.38548.624 4.64958 1.872 1.2642 1.248 1.8963 2.79068 1.8963 4.62798 0 1.872-.6321 3.4234-1.8963 4.654ZM94.4583 6.55308h-3.1949V19.6592h3.1949V6.55308Zm14.3987 9.90822v3.1979H97.675v-3.1979l6.586-6.71032h-6.586v-3.1979h11.182v3.1979l-6.573 6.71032h6.573Z" fill="#ADADAD"/></svg>