<svg width="83" height="24" fill="none" xmlns="http://www.w3.org/2000/svg"><path fill-rule="evenodd" clip-rule="evenodd" d="M21.9429 10.9714c0 .3015-.0122.6002-.0361.8956-1.2079-2.55273-3.8049-4.31877-6.8142-4.32414-3.0539-.00272-5.80802 1.83621-6.97603 4.65784-1.168 2.8217-.51936 6.0692 1.64294 8.2256.62379.6222 1.33819 1.1181 2.10649 1.4806-.295.0238-.5934.036-.8946.036-.5934 0-1.17588-.0472-1.74379-.1379-1.87001-1.6316-3.05278-4.0314-3.05617-6.708-.00624-4.9214 3.97696-8.91682 8.89846-8.92556 2.6864-.00477 5.0974 1.17928 6.7351 3.05615.0907.56791.1379 1.15041.1379 1.74381Zm-.1379-1.74381C20.9697 3.997 16.4373 0 10.9714 0 4.91208 0 0 4.91208 0 10.9714c0 5.4659 3.99701 9.9983 9.22761 10.8336C10.7959 23.1735 12.8477 24.0017 15.0925 24c2.3666-.0018 4.6353-.9446 6.3062-2.6205 1.6708-1.676 2.6067-3.9476 2.6013-6.3142-.0051-2.235-.8324-4.2762-2.195-5.83771ZM11.866 21.9069c1.8948.894 4.1182.9766 6.1235.1401 2.8185-1.1756 4.65-3.9347 4.639-6.9885-.0051-1.1416-.2634-2.2232-.7217-3.1915-.4318 5.3454-4.6952 9.6085-10.0408 10.0399Zm48.1121-9.0429v4.2789h-2.2876l.0165-11.84919h2.2711v7.24119l3.0116-4.2789h2.7648l-3.2091 4.4434 3.423 4.4435h-2.9129l-3.0774-4.2789Zm-7.4922 4.1266c-.5019.2661-1.1369.3991-1.9049.3991-.6363 0-1.1753-.122-1.6169-.3662-.4416-.2441-.7762-.5705-1.0039-.9792-.2276-.4086-.3415-.8598-.3415-1.3536 0-.4114.0631-.7872.1893-1.1273.1262-.3401.3305-.6404.613-.901.2825-.2606.6624-.4786 1.1397-.6542.3291-.1207.7214-.2276 1.1767-.3209.4553-.0932.9709-.1824 1.5469-.2674l.3525-.0522.3664-.0545.357-.0531-.0155-.116c-.053-.3098-.1678-.5512-.3445-.724-.2523-.2468-.6747-.3703-1.2672-.3703-.3291 0-.672.0796-1.0285.2387-.3566.159-.6062.4416-.7488.8475l-2.0243-.6418c.2249-.73512.6473-1.33306 1.2672-1.79386.6199-.4608 1.4647-.6912 2.5344-.6912.7845 0 1.4812.12069 2.0901.36206.6089.24137 1.0697.65828 1.3824 1.25074.1755.32914.2798.65826.3127.98746.0329.3291.0493.6967.0493 1.1026v5.4309h-1.9584v-1.0917l-.0142.0175c-.3489.4077-.7186.715-1.109.9219Zm-17.21-5.2292v5.3815h-2.2546V8.256h1.9748v.9744l.102-.11954c.2383-.26454.5211-.4864.8484-.6656.491-.2688 1.0409-.4032 1.6498-.4032.6967 0 1.2686.14811 1.7157.44434l.1447.1024c.2808.21211.5098.46811.6869.768l.0372.06922c.2807-.41989.6466-.75092 1.0978-.99311.4855-.26057 1.0245-.39085 1.6169-.39085 1.0149 0 1.7815.30034 2.2999.90102.5184.60069.7776 1.38652.7776 2.35752v5.8423h-2.2381V11.893c0-.5869-.1386-1.0436-.4156-1.37s-.6596-.4896-1.1479-.4896c-.3127 0-.5842.0727-.8146.218-.2304.1454-.4101.3484-.539.6089-.1289.2606-.1933.561-.1933.9011v5.3815h-2.2382V11.893c0-.5869-.1385-1.0436-.4156-1.37-.277-.3264-.6596-.4896-1.1478-.4896-.4663 0-.8407.1604-1.1233.4813-.2825.321-.4237.7365-.4237 1.2467Zm15.7824 3.8674c-.2579 0-.48-.0384-.6665-.1152-.1866-.0768-.3306-.1879-.432-.3333-.1015-.1453-.1523-.3195-.1523-.5225 0-.1481.0316-.2825.0947-.4032.063-.1207.1618-.2317.2962-.3332.1344-.1015.3113-.1961.5307-.2839.192-.0713.4142-.1372.6665-.1975.2524-.0603.5843-.1275.9957-.2016.2571-.0463.5636-.0995.9193-.1598l.0304-.0048.0002.0068c-.0031.1027-.0077.2139-.0138.3337l-.0104.1862c-.0192.3209-.0864.602-.2016.8434-.0603.1262-.1742.2825-.3415.469-.1673.1865-.3922.3525-.6747.4978-.2825.1454-.6295.2181-1.0409.2181Zm23.8875-2.304c.0933-1.0752-.0164-2.0105-.3291-2.8059-.3127-.79547-.7955-1.41261-1.4483-1.85147-.6528-.43886-1.4454-.65829-2.378-.65829-.8777 0-1.654.19886-2.3287.59657-.6747.39772-1.2041.95589-1.5881 1.67449-.384.7187-.576 1.5635-.576 2.5344 0 .8887.1961 1.6773.5883 2.3657.3923.6885.9354 1.2288 1.6293 1.6211.6939.3922 1.4962.5883 2.4068.5883.8558 0 1.6444-.2249 2.3658-.6747.7213-.4499 1.2493-1.0807 1.584-1.8926l-2.2382-.6418c-.1646.362-.4032.6391-.7159.8311-.3127.192-.6885.288-1.1273.288-.6967 0-1.2247-.2263-1.584-.6789-.2488-.3133-.4114-.7167-.488-1.2101l-.0119-.0859h6.2393Zm-6.1796-1.6622h3.9147l-.0125-.0925c-.0681-.4369-.1908-.7777-.3681-1.0224-.288-.3978-.7584-.59662-1.4112-.59662-.7625 0-1.3234.23182-1.6827.69532l-.0797.1109c-.1531.2296-.2679.5063-.3445.83l-.016.0753Zm10.2857 5.4803v-4.5422c0-.3401.0466-.646.1399-.9175.0932-.2715.2304-.5074.4114-.7077.181-.2002.4032-.3606.6665-.4813.2633-.1262.5582-.2016.8846-.2263s.613.0014.8599.0782V8.256c-.2688-.03292-.5376-.03977-.8064-.02057-.2688.0192-.5294.06583-.7818.13988-.2523.07406-.4854.17692-.6994.30857-.2798.16458-.5156.37303-.7076.62538-.0768.10093-.1475.20626-.212.31597l-.0349.06254V8.256h-1.9749v8.8869h2.2547Z" fill="#ADADAD"/></svg>