<svg width="90" height="20" fill="none" xmlns="http://www.w3.org/2000/svg"><path fill-rule="evenodd" clip-rule="evenodd" d="M20 5c0 2.76142-2.2386 5-5 5s-5-2.23858-5-5 2.2386-5 5-5 5 2.23858 5 5ZM10 15c0 2.7614-2.23858 5-5 5s-5-2.2386-5-5 2.23858-5 5-5 5 2.2386 5 5Zm71.6212 3.502c.3463 0 .7753-.0347 1.2871-.1041.5118-.0694.9333-.1581 1.2645-.2661v-3.0312c-.3011.0926-.5796.1581-.8355.1967-.2559.0385-.5268.0578-.8129.0578-.5871 0-.9973-.1118-1.2306-.3355-.2333-.2237-.35-.6054-.35-1.1454V9.22334h3.3419V6.0996h-3.3419V2.14286l-3.658.80986V6.0996h-2.4161v3.12374h2.4161v5.39136c0 1.2803.365 2.2483 1.0951 2.9039.7301.6556 1.8102.9834 3.2403.9834Zm-50.106-.162V9.96378c.2258-.29309.5005-.51291.8242-.65945.3236-.14655.6887-.21982 1.0951-.21982.5871 0 1.0575.20439 1.4113.61318.3538.40881.5306.94481.5306 1.60811V18.34h3.6581v-7.5432c0-.1389-.0038-.2738-.0113-.4049-.0075-.1312-.0188-.2584-.0339-.3818.2409-.29313.5269-.52066.8581-.68263.3312-.16198.7-.24296 1.1064-.24296.5871 0 1.0575.20439 1.4113.61318.3537.40881.5306.94481.5306 1.60811V18.34h3.6581v-7.5432c0-1.43463-.4328-2.61471-1.2984-3.54026-.8656-.92555-1.9758-1.38833-3.3306-1.38833-.7828 0-1.5054.14655-2.1678.43964-.6623.29309-1.2344.70959-1.7161 1.24949-.4064-.52448-.9145-.93712-1.5241-1.23792-.6097-.30081-1.2834-.45121-2.021-.45121-.557 0-1.0876.08484-1.5919.25453-.5043.16968-.9672.42421-1.3887.76358V6.0996h-3.6581V18.34h3.6581Zm23.1675.2314c.9936 0 1.8855-.1465 2.6758-.4396.7903-.2931 1.5618-.7636 2.3145-1.4115l-2.4161-2.1982c-.286.2931-.6323.5207-1.0387.6826-.4064.162-.8581.243-1.3548.243-.6925 0-1.2946-.1813-1.8065-.5438-.5118-.3625-.8881-.8291-1.129-1.3999h8.5128v-.9255c0-.9564-.1505-1.8473-.4516-2.67256-.301-.82529-.7188-1.53102-1.2532-2.11721-.5344-.58618-1.1704-1.04896-1.908-1.38833-.7377-.33937-1.543-.50905-2.4161-.50905-.8731 0-1.6898.16197-2.45.48591-.7602.32395-1.4188.7713-1.9758 1.34206-.557.57075-.9973 1.24564-1.321 2.02464-.3236.77904-.4854 1.60814-.4854 2.48744s.1693 1.7084.508 2.4874c.3387.779.7979 1.4539 1.3774 2.0247.5796.5707 1.2683 1.0181 2.0661 1.342.7979.324 1.6484.4859 2.5516.4859Zm-2.8225-7.6821h4.9903c-.1957-.5861-.5156-1.05664-.9597-1.41143-.4441-.3548-.9597-.5322-1.5468-.5322-.6021 0-1.1215.16969-1.558.50906-.4366.33937-.7452.81757-.9258 1.43457Zm16.2579 7.6821c.9935 0 1.8855-.1465 2.6758-.4396.7903-.2931 1.5618-.7636 2.3145-1.4115l-2.4161-2.1982c-.286.2931-.6323.5207-1.0387.6826-.4065.162-.8581.243-1.3548.243-.6925 0-1.2947-.1813-1.8065-.5438-.5118-.3625-.8882-.8291-1.129-1.3999h8.5128v-.9255c0-.9564-.1505-1.8473-.4516-2.67256-.3011-.82529-.7188-1.53102-1.2532-2.11721-.5344-.58618-1.1704-1.04896-1.9081-1.38833-.7376-.33937-1.5429-.50905-2.4161-.50905-.8731 0-1.6897.16197-2.4499.48591-.7603.32395-1.4188.7713-1.9758 1.34206-.557.57075-.9973 1.24564-1.321 2.02464-.3236.77904-.4855 1.60814-.4855 2.48744s.1694 1.7084.5081 2.4874c.3387.779.7978 1.4539 1.3774 2.0247.5796.5707 1.2683 1.0181 2.0661 1.342.7979.324 1.6484.4859 2.5516.4859Zm-2.8226-7.6821h4.9903c-.1957-.5861-.5156-1.05664-.9596-1.41143-.4441-.3548-.9597-.5322-1.5468-.5322-.6021 0-1.1215.16969-1.5581.50906-.4365.33937-.7451.81757-.9258 1.43457Zm22.3674-5.61276c.4627 0 .8533-.15509 1.1719-.46527s.4779-.70118.4779-1.173c0-.46308-.1593-.8519-.4779-1.16645S88.1256 2 87.6629 2c-.4626 0-.8554.15727-1.1784.47182-.323.31455-.4845.70337-.4845 1.16645 0 .47182.1615.86282.4845 1.173.323.31018.7158.46527 1.1784.46527Z" fill="#ADADAD"/></svg>