<svg width="84" height="27" fill="none" xmlns="http://www.w3.org/2000/svg"><g fill="#151515"><path d="M8.85249 19.42c-1.10833 0-2.17583-.1283-3.2025-.385-1.02666-.2567-1.94541-.6358-2.75625-1.1375-.81083-.5017-1.4525-1.1287-1.924995-1.8812-.4725-.7525-.70875-1.6305-.70875-2.6338V13.0675H5.64999v.245c0 .6767.30042 1.1725.90125 1.4875.60084.315 1.41459.4725 2.44125.4725.53667 0 1.05291-.0554 1.54871-.1662.4959-.1109.9042-.2917 1.225-.5425.3209-.2509.4813-.5688.4813-.9538 0-.6183-.3413-1.0558-1.0238-1.3125-.6825-.2567-1.77621-.5133-3.28121-.77-.85166-.14-1.715-.3383-2.59-.595-.875-.2567-1.68-.5979-2.415-1.02375-.735-.42583-1.32416-.96833-1.7675-1.6275C.726661 7.62209.504995 6.82.504995 5.875c0-1.26.382083-2.32166 1.146245-3.185.76417-.86333 1.78209-1.51666 3.05375-1.959998 1.27167-.443333 2.67167-.6649996 4.2-.6649996 1.45831 0 2.81751.2420836 4.07751.7262496 1.26.484168 2.2808 1.178338 3.0625 2.082498.7817.90417 1.1725 1.99209 1.1725 3.26375v.245H11.88v-.21c0-.46666-.1488-.84583-.4463-1.1375-.2975-.29166-.6737-.51041-1.1287-.65625C9.84999 4.23292 9.37749 4.16 8.88749 4.16c-.44333 0-.90125.04959-1.37375.14875-.4725.09917-.87208.2625-1.19875.49-.32666.2275-.49.54542-.49.95375 0 .39667.175.72042.525.97125.35.25084.84.455 1.47.6125.63.1575 1.35917.30625 2.18751.44625.7817.12834 1.6071.30625 2.4762.53375.8692.2275 1.6859.54834 2.45.9625.7642.41417 1.3825.95665 1.855 1.62755.4725.6708.7088 1.5195.7088 2.5462 0 1.0617-.245 1.9717-.735 2.73s-1.1521 1.3738-1.9863 1.8463c-.8341.4725-1.7616.8225-2.7825 1.05-1.0208.2275-2.06787.3412-3.14121.3412Z"/><path fill-rule="evenodd" clip-rule="evenodd" d="M33.4789 11.1075V19h5.4075V7.3625c0-1.45833-.2421-2.73291-.7263-3.82375-.4841-1.09083-1.2191-1.9425-2.205-2.554998-.9858-.6125-2.2429-.9187496-3.7712-.9187496-1.4583 0-2.7854.3441666-3.9813 1.0324976-.954.54916-1.7503 1.26541-2.3887 2.14873V.415002h-5.425V19h5.425V9.27c0-.89833.1633-1.69166.49-2.38.3267-.68833.7962-1.225 1.4087-1.61s1.3388-.5775 2.1788-.5775c.9683 0 1.7092.1925 2.2225.5775.5133.385.8692.89542 1.0675 1.53125.1983.63584.2975 1.33875.2975 2.10875v2.1875ZM25.8139 9.27V3.24623c-.1618.22386-.3135.45845-.455.70377-.7 1.21334-1.05 2.625-1.05 4.235l1.505 1.085ZM45.164 18.7375c1.0559.4317 2.2604.6475 3.6138.6475 1.155 0 2.2312-.1487 3.2287-.4462s1.8609-.7234 2.59-1.2775c.2574-.1957.4897-.4047.697-.6273.0484.1893.1048.378.1693.566.1166.3383.2596.6358.4287.8925.1692.2567.2946.4258.3763.5075h5.3375c-.1167-.105-.2625-.2917-.4375-.56-.175-.2683-.3209-.6067-.4375-1.015-.105-.3617-.1721-.7612-.2013-1.1987-.0291-.4375-.0437-.8955-.0437-1.3738V6.82c0-1.52833-.4229-2.78833-1.2688-3.78-.8458-.99166-1.9629-1.73541-3.3512-2.231248-1.3884-.495833-2.8992-.7437496-4.5325-.7437496-1.75 0-3.3192.2654166-4.7075.7962496-1.3884.530838-2.4879 1.309588-3.2988 2.336248-.8108 1.02667-1.2162 2.28667-1.2162 3.78h5.3375c0-.92166.3296-1.60708.9887-2.05625.6592-.44916 1.6129-.67375 2.8613-.67375 1.1783 0 2.0971.19834 2.7562.595.6592.39667.9888.93917.9888 1.6275v.035c0 .40834-.3879.69417-1.1638.8575-.7758.16334-2.1846.34417-4.2262.5425-1.4.14-2.6979.42875-3.8938.86625-1.1958.4375-2.1554 1.07042-2.8787 1.89875-.7234.8283-1.085 1.9017-1.085 3.22 0 1.1667.2975 2.1583.8925 2.975s1.4204 1.4408 2.4762 1.8725Zm7.455-3.8762c-.7408.3091-1.5371.4637-2.3887.4637-.9917 0-1.7384-.1604-2.24-.4812-.5017-.3209-.7525-.8021-.7525-1.4438 0-.6767.2946-1.1579.8837-1.4437.5892-.2859 1.4788-.4871 2.6688-.6038 1.0033-.105 2.0096-.2479 3.0187-.4287.4659-.0835.9063-.1776 1.3213-.2822v.1509c0 1.0733-.2334 1.9425-.7 2.6075-.4667.665-1.0704 1.1521-1.8113 1.4613Zm2.5113-4.2197c.4838-.122.933-.2584 1.3475-.4091L55.1303 8.92v1.7216ZM71.1117 18.2388c1.225.7875 2.5725 1.1812 4.0425 1.1812 1.54 0 2.9633-.3704 4.27-1.1112 1.3066-.7409 2.3566-1.8405 3.15-3.2988.7933-1.4583 1.19-3.255 1.19-5.39 0-2.04166-.4055-3.77416-1.2163-5.1975-.8108-1.42333-1.8696-2.50541-3.1762-3.24625C78.065.435419 76.6592.0650024 75.1542.0650024c-1.47 0-2.8175.3733336-4.0425 1.1199976-.6308.38449-1.1967.8409-1.6975 1.36923V.415002h-5.4425V26.6475h5.4425v-9.8434c.5008.5509 1.0667 1.0291 1.6975 1.4347Zm-1.6975-8.0238-2.345.0525v.28c0 1.6683.3675 3.1704 1.1025 4.5063.3565.6479.7707 1.2314 1.2425 1.7503V10.425c0 .8633.21 1.6188.63 2.2663.42.6475.9625 1.1462 1.6275 1.4962.665.35 1.3591.525 2.0825.525 1.19 0 2.2254-.4112 3.1062-1.2337.8808-.8225 1.3213-2.1088 1.3213-3.8588s-.4375-3.02458-1.3125-3.82375c-.875-.79916-1.9134-1.19875-3.115-1.19875-.7234 0-1.4175.17209-2.0825.51625-.665.34417-1.2075.83125-1.6275 1.46125-.42.63-.63 1.3825-.63 2.2575V2.55423c-.4718.49769-.886 1.0592-1.2425 1.68452-.735 1.28917-1.1025 2.77375-1.1025 4.45375l2.345.14v1.3825Z"/></g></svg>